# xmcd
#
# Track frame offsets: 
#        150
#        21507
#        40812
#        63681
#        95738
#        116973
#        138685
#        159983
#        183534
#        203519
#        222884
#        243356
#        266751
#        288909
#
# Disc length: 4097 seconds
#
# Revision: 4
# Processed by: cddbd v1.5.2PL0 Copyright (c) Steve Scherf et al.
# Submitted via: ExactAudioCopyFreeDBPlugin 1.0
#
DISCID=da0fff0e
DTITLE=shela - FLORAL single collection vol.2
DYEAR=2005
DGENRE=J-Pop
TTITLE0=I believe in love
TTITLE1=Rose
TTITLE2=Dear my friends
TTITLE3=in my pocket (GROOVE THAT SOUL MIX)
TTITLE4=into the light
TTITLE5=星が見える場所
TTITLE6=OVER THERE
TTITLE7=Baby's breath
TTITLE8=Days
TTITLE9=Precious Moment
TTITLE10=Bithrday Song - sunny-side up
TTITLE11=月と太陽
TTITLE12=treasure
TTITLE13=枯れない花
EXTD=YEAR: 2005
EXTT0=
EXTT1=
EXTT2=
EXTT3=
EXTT4=
EXTT5=
EXTT6=
EXTT7=
EXTT8=
EXTT9=
EXTT10=
EXTT11=
EXTT12=
EXTT13=
PLAYORDER=
